<svg width="1226" height="262" viewBox="0 0 1226 262" fill="none" xmlns="http://www.w3.org/2000/svg">
<g filter="url(#filter0_b_0_78)">
<path fill-rule="evenodd" clip-rule="evenodd" d="M42.1322 257.328L69.14 194.793H188.695L216.063 257.328H258.555L148.363 4.31276H110.192L0 257.328H42.1322ZM128.917 54.2689L175.011 159.931H82.824L128.917 54.2689ZM313.831 257.328V80.8642H274.94V257.328H313.831ZM294.385 49.2373C307.709 49.2373 318.512 38.8148 318.512 24.7984C318.512 10.7819 307.709 0 294.385 0C280.341 0 269.898 10.7819 269.898 24.7984C269.898 38.8148 280.341 49.2373 294.385 49.2373ZM388.913 257.328V149.15C397.195 130.82 419.161 114.647 446.89 114.647C450.851 114.647 454.452 115.007 457.693 115.366V76.5514C456.612 76.192 455.532 76.192 454.092 76.192C426.724 76.192 400.796 90.9273 388.913 111.413V80.8642H350.021V257.328H388.913ZM513.689 257.328V153.462H582.469C608.756 153.462 629.282 146.634 644.047 132.617C659.171 118.601 666.733 100.631 666.733 78.7078C666.733 57.144 659.171 39.5336 644.047 26.2359C629.282 12.5789 608.756 5.75034 582.469 5.75034H474.077V257.328H513.689ZM513.689 42.0494H579.228C609.117 42.0494 626.762 55.347 626.762 79.4266C626.762 103.506 609.117 117.163 579.228 117.163H513.689V42.0494ZM760.18 227.857C743.255 227.857 729.571 222.107 718.408 210.966C707.245 199.824 701.843 185.808 701.843 168.916C701.843 152.384 707.245 138.368 718.408 127.226C729.571 116.085 743.616 110.335 760.18 110.335C776.745 110.335 790.429 116.085 801.592 127.226C812.756 138.368 818.157 152.384 818.157 168.916C818.157 185.808 812.756 199.824 801.592 210.966C790.429 222.107 776.745 227.857 760.18 227.857ZM760.18 262C788.268 262 811.315 253.015 829.68 235.045C848.046 216.716 857.048 194.793 857.048 168.916C857.048 143.04 848.046 121.117 829.68 103.147C811.315 85.177 788.268 76.192 760.18 76.192C731.732 76.192 708.685 85.177 690.32 103.147C671.955 121.117 662.952 143.04 662.952 168.916C662.952 195.152 671.955 217.075 690.32 235.045C708.685 253.015 731.732 262 760.18 262ZM950.495 262C977.863 262 998.75 252.296 1013.51 233.248V257.328H1052.41V5.75034H1013.51V104.944C998.75 85.8957 977.863 76.192 950.495 76.192C925.648 76.192 905.122 85.1769 888.918 103.147C872.713 121.117 864.791 143.04 864.791 168.916C864.791 195.152 872.713 217.075 888.918 235.045C905.122 253.015 925.648 262 950.495 262ZM960.939 227.857C944.734 227.857 931.05 222.107 920.247 210.966C909.444 199.465 904.042 185.449 904.042 168.916C904.042 152.743 909.444 138.727 920.247 127.586C931.05 116.085 944.734 110.335 960.939 110.335C983.985 110.335 1003.79 123.992 1013.51 141.602V196.23C1003.79 214.56 983.985 227.857 960.939 227.857ZM1148.37 262C1194.47 262 1225.44 240.436 1225.44 208.45C1225.44 180.417 1205.27 161.728 1164.94 152.743L1144.41 148.431C1139.73 146.993 1131.45 144.837 1127.49 143.04C1121.01 139.805 1116.32 135.852 1116.32 129.023C1116.32 117.523 1128.57 109.616 1152.69 109.616C1173.94 109.616 1195.19 115.726 1216.43 127.586V92.0055C1200.23 81.583 1178.26 76.192 1151.25 76.192C1104.08 76.192 1076.35 95.9588 1076.35 127.945C1076.35 158.494 1095.44 172.87 1135.77 182.933L1157.74 188.324C1163.14 189.761 1170.7 191.918 1174.66 193.715C1181.14 196.949 1185.46 200.903 1185.46 207.731C1185.46 220.669 1171.06 228.576 1146.57 228.576C1119.2 228.576 1095.08 221.388 1074.55 207.372V244.03C1090.04 254.453 1118.48 262 1148.37 262Z" fill="black" fill-opacity="0.0375057"/>
</g>
<defs>
<filter id="filter0_b_0_78" x="-41.0288" y="-41.0288" width="1307.49" height="344.058" filterUnits="userSpaceOnUse" color-interpolation-filters="sRGB">
<feFlood flood-opacity="0" result="BackgroundImageFix"/>
<feGaussianBlur in="BackgroundImageFix" stdDeviation="20.5144"/>
<feComposite in2="SourceAlpha" operator="in" result="effect1_backgroundBlur_0_78"/>
<feBlend mode="normal" in="SourceGraphic" in2="effect1_backgroundBlur_0_78" result="shape"/>
</filter>
</defs>
</svg>
