<svg width="60" height="74" viewBox="0 0 60 74" fill="none" xmlns="http://www.w3.org/2000/svg">
<path fill-rule="evenodd" clip-rule="evenodd" d="M44.668 0C45.1415 4.33665 43.4057 8.68372 40.8341 11.817C38.2597 14.9432 34.0384 17.3777 29.9031 17.0537C29.3437 12.8037 31.4312 8.37746 33.8159 5.60419C36.4737 2.47799 40.9638 0.151466 44.668 0ZM58.0151 25.2621C57.2606 25.7313 50.022 30.2329 50.1122 39.3191C50.207 50.2715 59.4754 54.0726 59.9796 54.2794C59.9907 54.284 59.9976 54.2868 60 54.2879C59.9955 54.3014 59.9873 54.3278 59.9753 54.3666C59.7558 55.0727 58.2654 59.8675 54.8964 64.8115C51.8229 69.3207 48.6419 73.8086 43.6209 73.9022C41.208 73.9477 39.5956 73.2469 37.9192 72.5184C36.165 71.756 34.3409 70.9632 31.4564 70.9632C28.433 70.9632 26.5232 71.7804 24.6834 72.5677C23.0905 73.2494 21.5501 73.9085 19.3849 73.9953C14.5396 74.1757 10.8493 69.1266 7.75446 64.6311C1.42094 55.4472 -3.41311 38.6715 3.08506 27.3475C6.30552 21.7222 12.0724 18.1634 18.3268 18.07C21.0246 18.0208 23.6373 19.062 25.9235 19.9732C27.6701 20.6694 29.2263 21.2896 30.4844 21.2896C31.6159 21.2896 33.1319 20.6893 34.8993 19.9894C37.6805 18.888 41.0845 17.5401 44.5931 17.8969C46.9958 17.9976 53.7383 18.869 58.0666 25.2298C58.0562 25.2366 58.0389 25.2473 58.0151 25.2621Z" fill="white"/>
</svg>
